grf
version=1
nRows=12
nColumns=37
inDegrees=no
endheader
time	ground_force_1_vx	ground_force_1_vy	ground_force_1_vz	ground_force_1_px	ground_force_1_py	ground_force_1_pz	ground_moment_1_mx	ground_moment_1_my	ground_moment_1_mz	ground_force_2_vx	ground_force_2_vy	ground_force_2_vz	ground_force_2_px	ground_force_2_py	ground_force_2_pz	ground_moment_2_mx	ground_moment_2_my	ground_moment_2_mz	ground_force_3_vx	ground_force_3_vy	ground_force_3_vz	ground_force_3_px	ground_force_3_py	ground_force_3_pz	ground_moment_3_mx	ground_moment_3_my	ground_moment_3_mz	ground_force_4_vx	ground_force_4_vy	ground_force_4_vz	ground_force_4_px	ground_force_4_py	ground_force_4_pz	ground_moment_4_mx	ground_moment_4_my	ground_moment_4_mz
      1.46000000	      0.00000000	     -0.00000000	      0.00000000	      0.00000000	      0.00000000	      0.00000000	      0.00000000	      0.00000000	      0.00000000	      8.10464096	     24.85387802	   -282.70446777	   -379.01988804	  -1083.95738401	      0.00000000	      0.00000000	      0.00000000	   1556.06159827	    -22.20828547	    -56.16582295	   -406.62646484	   -368.44730237	   -620.92064327	      0.00000000	      0.00000000	     -0.00000000	  -5221.84736164	    -34.99162911	     16.54097291	     75.84499359	    605.52346668	   -565.71507628	      0.00000000	      0.00000000	     -0.00000000	   -119.40235323
      1.47000000	      0.00000000	     -0.00000000	      0.00000000	      0.00000000	      0.00000000	      0.00000000	      0.00000000	      0.00000000	      0.00000000	      6.34061050	     22.36174393	   -341.05612183	   -378.57576621	  -1083.00584588	      0.00000000	      0.00000000	      0.00000000	   2519.69800207	    -17.71199707	    -54.94609678	   -458.91714478	   -368.05833704	   -620.84792982	      0.00000000	      0.00000000	     -0.00000000	  -6348.77979338	    -35.42225508	     15.84128594	     76.83267212	    602.55968705	   -564.52557183	      0.00000000	      0.00000000	      0.00000000	    310.56749679
      1.48000000	      0.00000000	     -0.00000000	      0.00000000	      0.00000000	      0.00000000	      0.00000000	      0.00000000	      0.00000000	      0.00000000	      9.66729546	     30.44226456	   -386.49487305	   -377.83711151	  -1083.31014167	      0.00000000	     -0.00000000	      0.00000000	   2927.41712831	     -7.60947626	    -56.45060663	   -507.08419800	   -367.94978347	   -620.32718411	      0.00000000	      0.00000000	     -0.00000000	  -7625.43386189	    -35.32966090	     16.29098057	     75.09113312	    606.38375032	   -561.46892853	      0.00000000	      0.00000000	     -0.00000000	   -140.82697126
      1.49000000	      0.00000000	     -0.00000000	      0.00000000	      0.00000000	      0.00000000	      0.00000000	      0.00000000	      0.00000000	      0.00000000	     18.76933289	     45.95958710	   -425.40560913	   -375.67693947	  -1086.44601297	      0.00000000	      0.00000000	      0.00000000	   3083.16379418	     -2.36948848	    -62.71159724	   -551.79864502	   -368.00798026	   -620.72362878	      0.00000000	      0.00000000	     -0.00000000	  -8418.72223596	    -35.43186045	     16.37765050	     75.11614227	    606.35823948	   -564.00391376	      0.00000000	      0.00000000	     -0.00000000	    -33.78958057
      1.50000000	      0.00000000	     -0.00000000	      0.00000000	      0.00000000	      0.00000000	      0.00000000	      0.00000000	      0.00000000	      0.00000000	     25.70821571	     56.71185684	   -462.65338135	   -373.33387246	  -1089.35842500	      0.00000000	      0.00000000	      0.00000000	   3253.29476717	      2.67073344	    -68.30078148	   -589.54089355	   -366.70981679	   -619.77272723	      0.00000000	      0.00000000	     -0.00000000	  -9296.82112027	    -35.32685714	     15.84395145	     76.50756836	    599.48392802	   -561.58089850	      0.00000000	      0.00000000	      0.00000000	    135.39236854
      1.51000000	      0.00000000	     -0.00000000	      0.00000000	      0.00000000	      0.00000000	      0.00000000	      0.00000000	      0.00000000	      0.00000000	     23.54239464	     60.97436523	   -477.43869019	   -370.03577580	  -1089.31841317	      0.00000000	      0.00000000	      0.00000000	   3468.63878460	      5.51238600	    -69.16508532	   -612.82171631	   -364.84523409	   -618.98771294	      0.00000000	      0.00000000	     -0.00000000	  -9765.26991247	    -35.17530680	     16.27235148	     76.12105560	    605.34334369	   -564.17209558	      0.00000000	      0.00000000	      0.00000000	   -153.29284165
      1.52000000	      0.00000000	     -0.00000000	      0.00000000	      0.00000000	      0.00000000	      0.00000000	      0.00000000	      0.00000000	      0.00000000	     19.14122772	     62.47741699	   -491.02706909	   -368.07189794	  -1090.14786170	      0.00000000	      0.00000000	      0.00000000	   4204.85909250	      4.93755977	    -68.96719404	   -629.88140869	   -362.39995540	   -619.02048907	      0.00000000	      0.00000000	     -0.00000000	 -10671.63815022	    -35.58964779	     16.10158659	     76.11009979	    599.59375109	   -563.18934766	      0.00000000	      0.00000000	      0.00000000	    111.89406779
      1.53000000	      0.00000000	     -0.00000000	      0.00000000	      0.00000000	      0.00000000	      0.00000000	      0.00000000	      0.00000000	      0.00000000	     19.62338638	     63.92989349	   -516.74859619	   -365.30293351	  -1090.56765850	      0.00000000	      0.00000000	      0.00000000	   4565.97707547	      0.25433330	    -68.69079592	   -640.69323730	   -360.44831986	   -618.31998045	      0.00000000	      0.00000000	     -0.00000000	 -11188.29818516	    -35.33609629	     16.28160213	     74.11888123	    614.13591052	   -567.13383969	      0.00000000	      0.00000000	     -0.00000000	    -37.89004462
      1.54000000	      0.00000000	     -0.00000000	      0.00000000	      0.00000000	      0.00000000	      0.00000000	      0.00000000	      0.00000000	      0.00000000	     20.97307205	     67.82823181	   -535.47753906	   -363.94245061	  -1090.94296125	      0.00000000	      0.00000000	      0.00000000	   5071.90774881	     -2.74715076	    -66.59168219	   -644.13922119	   -357.06071515	   -617.95697718	      0.00000000	      0.00000000	     -0.00000000	 -11668.96255104	    -35.32478192	     16.02597545	     75.42142487	    605.82525199	   -568.44446119	      0.00000000	      0.00000000	      0.00000000	    161.73553895
      1.55000000	      0.00000000	     -0.00000000	      0.00000000	      0.00000000	      0.00000000	      0.00000000	      0.00000000	      0.00000000	      0.00000000	     19.63471222	     72.01456451	   -556.66699219	   -361.00397350	  -1091.92831392	      0.00000000	      0.00000000	      0.00000000	   5323.65178446	     -4.34118898	    -66.33239708	   -645.62573242	   -354.98713157	   -617.24279917	      0.00000000	     -0.00000000	     -0.00000000	 -12379.21596088	    -35.17927028	     16.19176028	     76.48590088	    603.89681084	   -559.40467444	      0.00000000	      0.00000000	      0.00000000	   -132.61649677
      1.56000000	      0.00000000	     -0.00000000	      0.00000000	      0.00000000	      0.00000000	      0.00000000	      0.00000000	      0.00000000	      0.00000000	     16.84171677	     74.71033478	   -569.02679443	   -359.00150543	  -1092.89185015	      0.00000000	      0.00000000	      0.00000000	   5598.45335503	     -6.48688205	    -69.09764805	   -657.10339355	   -353.12956131	   -616.56962477	      0.00000000	      0.00000000	     -0.00000000	 -13112.00768060	    -35.25469065	     16.27910731	     76.77425385	    598.30072832	   -560.72021549	      0.00000000	      0.00000000	     -0.00000000	    -15.60369465
      1.57000000	      0.00000000	     -0.00000000	      0.00000000	      0.00000000	      0.00000000	      0.00000000	      0.00000000	      0.00000000	      0.00000000	     14.25496578	     76.75463104	   -579.24682617	   -356.98516603	  -1092.68762220	      0.00000000	      0.00000000	      0.00000000	   5838.41467602	    -13.06476386	    -74.54618721	   -664.83776855	   -350.88702939	   -616.78738329	      0.00000000	      0.00000000	     -0.00000000	 -13754.56909305	    -35.15717938	     16.03579256	     75.47537994	    604.73473487	   -564.13847220	      0.00000000	      0.00000000	      0.00000000	     35.68533891
